<?xml version="1.0" encoding="UTF-8"?>
<svg xmlns="http://www.w3.org/2000/svg" xmlns:xlink="http://www.w3.org/1999/xlink" width="383.96pt" height="159.14pt" viewBox="0 0 383.96 159.14">
<defs>
<g>
<g id="glyph-0-0">
<path d="M 8.359375 -6.6875 C 8.359375 -7.894531 8.34375 -8.898438 8.3125 -9.703125 L 9.46875 -9.109375 L 9.015625 -8.78125 L 9.015625 -6.6875 L 9.703125 -6.6875 L 10.3125 -7.296875 L 11.1875 -6.40625 L 9.015625 -6.40625 L 9.015625 -0.1875 C 9.015625 0.402344 8.671875 0.820312 7.984375 1.0625 C 7.953125 0.601562 7.441406 0.265625 6.453125 0.046875 L 6.453125 -0.1875 C 7.285156 -0.0625 7.8125 -0.015625 8.03125 -0.046875 C 8.25 -0.078125 8.359375 -0.265625 8.359375 -0.609375 L 8.359375 -6.40625 L 5.953125 -6.40625 C 5.546875 -6.40625 5.171875 -6.359375 4.828125 -6.265625 L 4.40625 -6.6875 Z M 5.34375 -5.25 C 6.144531 -4.6875 6.640625 -4.257812 6.828125 -3.96875 C 7.015625 -3.675781 6.984375 -3.351562 6.734375 -3 C 6.484375 -2.644531 6.289062 -2.742188 6.15625 -3.296875 C 6.019531 -3.859375 5.703125 -4.460938 5.203125 -5.109375 Z M 1.71875 -7.703125 L 1.71875 -4.921875 L 3.625 -4.921875 L 3.625 -7.703125 Z M 1.71875 -4.640625 L 1.71875 -1.671875 L 3.625 -1.671875 L 3.625 -4.640625 Z M 4.265625 -3.71875 C 4.265625 -2.226562 4.28125 -1.269531 4.3125 -0.84375 L 3.625 -0.46875 L 3.625 -1.390625 L 1.71875 -1.390625 L 1.71875 -0.421875 L 1.015625 -0.046875 C 1.046875 -1.035156 1.0625 -2.519531 1.0625 -4.5 C 1.0625 -6.488281 1.046875 -7.773438 1.015625 -8.359375 L 1.765625 -7.984375 L 3.53125 -7.984375 L 3.90625 -8.453125 L 4.640625 -7.84375 L 4.265625 -7.53125 Z M 4.265625 -3.71875 "/>
</g>
<g id="glyph-0-1">
<path d="M 4 -0.96875 C 4.03125 -1.96875 4.046875 -2.953125 4.046875 -3.921875 C 4.046875 -4.898438 4.03125 -5.867188 4 -6.828125 L 4.6875 -6.40625 L 6.96875 -6.40625 L 7.4375 -6.875 L 8.03125 -6.265625 L 7.65625 -5.953125 C 7.65625 -3.898438 7.671875 -2.394531 7.703125 -1.4375 L 7.0625 -1.0625 L 7.0625 -1.8125 L 4.640625 -1.8125 L 4.640625 -1.296875 Z M 4.640625 -6.125 L 4.640625 -4.3125 L 7.0625 -4.3125 L 7.0625 -6.125 Z M 4.640625 -4.046875 L 4.640625 -2.09375 L 7.0625 -2.09375 L 7.0625 -4.046875 Z M 2.375 -9.65625 C 3.082031 -9.195312 3.519531 -8.832031 3.6875 -8.5625 C 3.863281 -8.300781 3.84375 -8.007812 3.625 -7.6875 C 3.40625 -7.363281 3.222656 -7.441406 3.078125 -7.921875 C 2.941406 -8.398438 2.660156 -8.929688 2.234375 -9.515625 Z M 2.09375 -0.796875 C 2.09375 -0.296875 2.109375 0.203125 2.140625 0.703125 L 1.390625 0.96875 C 1.421875 0.507812 1.4375 -1.019531 1.4375 -3.625 C 1.4375 -6.226562 1.421875 -7.757812 1.390625 -8.21875 L 2.515625 -7.65625 L 2.09375 -7.390625 Z M 7.84375 -0.234375 C 8.84375 -0.078125 9.398438 -0.0195312 9.515625 -0.0625 C 9.640625 -0.113281 9.703125 -0.25 9.703125 -0.46875 L 9.703125 -8.265625 L 5.984375 -8.265625 C 5.585938 -8.265625 5.21875 -8.21875 4.875 -8.125 L 4.453125 -8.546875 L 9.609375 -8.546875 L 10.078125 -9.015625 L 10.734375 -8.359375 L 10.359375 -8.078125 L 10.359375 -0.421875 C 10.359375 -0.015625 10.285156 0.28125 10.140625 0.46875 C 10.003906 0.65625 9.722656 0.835938 9.296875 1.015625 C 9.046875 0.492188 8.5625 0.140625 7.84375 -0.046875 Z M 7.84375 -0.234375 "/>
</g>
<g id="glyph-0-2">
<path d="M 7.890625 -9.0625 L 7.4375 -8.6875 L 7.4375 -5.90625 L 9.65625 -5.90625 L 10.359375 -6.59375 L 11.234375 -5.625 L 7.9375 -5.625 C 8.5 -2.550781 9.644531 -0.613281 11.375 0.1875 L 11.375 0.375 C 10.882812 0.34375 10.515625 0.507812 10.265625 0.875 C 8.804688 -0.601562 7.953125 -2.769531 7.703125 -5.625 L 7.4375 -5.625 C 7.28125 -2.34375 6.132812 -0.0664062 4 1.203125 L 3.90625 1.0625 C 5.664062 -0.445312 6.625 -2.675781 6.78125 -5.625 L 5.671875 -5.625 C 5.265625 -5.625 4.890625 -5.578125 4.546875 -5.484375 L 4.140625 -5.90625 L 6.78125 -5.90625 C 6.78125 -7.632812 6.765625 -8.851562 6.734375 -9.5625 Z M 8.546875 -8.96875 C 9.285156 -8.65625 9.796875 -8.390625 10.078125 -8.171875 C 10.359375 -7.953125 10.40625 -7.632812 10.21875 -7.21875 C 10.03125 -6.800781 9.835938 -6.804688 9.640625 -7.234375 C 9.441406 -7.671875 9.046875 -8.203125 8.453125 -8.828125 Z M 3.203125 1.109375 C 3.234375 0.398438 3.25 -1.300781 3.25 -4 C 2.039062 -2.757812 1.3125 -1.90625 1.0625 -1.4375 L 0.46875 -2.28125 C 0.957031 -2.457031 1.882812 -3.132812 3.25 -4.3125 C 3.25 -7.445312 3.234375 -9.210938 3.203125 -9.609375 L 4.359375 -9.109375 L 3.90625 -8.78125 L 3.90625 -1.53125 C 3.90625 -0.539062 3.921875 0.21875 3.953125 0.75 Z M 0.84375 -7.53125 L 0.921875 -7.65625 C 1.765625 -7.039062 2.269531 -6.585938 2.4375 -6.296875 C 2.601562 -6.003906 2.5625 -5.675781 2.3125 -5.3125 C 2.070312 -4.957031 1.878906 -5.054688 1.734375 -5.609375 C 1.597656 -6.171875 1.300781 -6.8125 0.84375 -7.53125 Z M 0.84375 -7.53125 "/>
</g>
<g id="glyph-0-3">
<path d="M 5.296875 -9.703125 L 6.5 -9.15625 L 6.03125 -8.921875 C 5.976562 -8.515625 5.90625 -8.035156 5.8125 -7.484375 L 9.375 -7.484375 L 10.078125 -8.171875 L 11.046875 -7.203125 L 6.21875 -7.203125 C 6.875 -6.054688 7.679688 -5.234375 8.640625 -4.734375 C 9.597656 -4.242188 10.476562 -3.96875 11.28125 -3.90625 L 11.28125 -3.71875 C 10.695312 -3.625 10.375 -3.421875 10.3125 -3.109375 C 9.039062 -3.578125 8.070312 -4.1875 7.40625 -4.9375 C 6.738281 -5.695312 6.265625 -6.453125 5.984375 -7.203125 L 5.765625 -7.203125 C 5.453125 -6.273438 5.078125 -5.53125 4.640625 -4.96875 C 5.203125 -4.75 5.660156 -4.53125 6.015625 -4.3125 C 6.367188 -4.101562 6.546875 -3.878906 6.546875 -3.640625 C 6.546875 -3.410156 6.484375 -3.21875 6.359375 -3.0625 C 6.234375 -2.90625 6.039062 -3.046875 5.78125 -3.484375 C 5.519531 -3.921875 5.09375 -4.351562 4.5 -4.78125 C 3.539062 -3.914062 2.226562 -3.28125 0.5625 -2.875 L 0.46875 -3.0625 C 1.675781 -3.40625 2.664062 -3.910156 3.4375 -4.578125 C 4.207031 -5.242188 4.75 -6.117188 5.0625 -7.203125 L 2.28125 -7.203125 C 1.875 -7.203125 1.5 -7.15625 1.15625 -7.0625 L 0.75 -7.484375 L 5.109375 -7.484375 C 5.234375 -8.378906 5.296875 -9.117188 5.296875 -9.703125 Z M 2.46875 -2.328125 C 2.46875 -1.765625 2.410156 -1.273438 2.296875 -0.859375 C 2.191406 -0.441406 2.019531 -0.175781 1.78125 -0.0625 C 1.550781 0.0390625 1.3125 0.0390625 1.0625 -0.0625 C 0.820312 -0.175781 0.882812 -0.378906 1.25 -0.671875 C 1.625 -0.960938 1.96875 -1.53125 2.28125 -2.375 Z M 4.828125 -2.96875 L 4.921875 -3.109375 C 5.515625 -2.859375 5.957031 -2.632812 6.25 -2.4375 C 6.539062 -2.238281 6.675781 -2.03125 6.65625 -1.8125 C 6.644531 -1.59375 6.5625 -1.390625 6.40625 -1.203125 C 6.25 -1.015625 6.09375 -1.113281 5.9375 -1.5 C 5.789062 -1.894531 5.421875 -2.382812 4.828125 -2.96875 Z M 8.59375 -2.421875 L 8.734375 -2.515625 C 9.472656 -2.109375 9.984375 -1.769531 10.265625 -1.5 C 10.546875 -1.238281 10.660156 -0.984375 10.609375 -0.734375 C 10.566406 -0.492188 10.457031 -0.296875 10.28125 -0.140625 C 10.113281 0.0117188 9.941406 -0.148438 9.765625 -0.640625 C 9.597656 -1.140625 9.207031 -1.734375 8.59375 -2.421875 Z M 3.53125 -0.09375 C 3.53125 -1.363281 3.515625 -2.335938 3.484375 -3.015625 L 4.546875 -2.46875 L 4.1875 -2.140625 L 4.1875 -0.328125 C 4.125 0.0742188 4.304688 0.265625 4.734375 0.234375 L 7.203125 0.234375 C 7.566406 0.234375 7.78125 0.0742188 7.84375 -0.234375 C 7.90625 -0.546875 7.9375 -1.023438 7.9375 -1.671875 L 8.171875 -1.671875 C 8.203125 -1.117188 8.25 -0.6875 8.3125 -0.375 C 8.375 -0.0625 8.5625 0.125 8.875 0.1875 C 8.625 0.625 8.191406 0.828125 7.578125 0.796875 L 4.78125 0.796875 C 3.914062 0.847656 3.5 0.550781 3.53125 -0.09375 Z M 3.53125 -0.09375 "/>
</g>
<g id="glyph-0-4">
<path d="M 2.828125 -1.203125 C 2.828125 -0.117188 2.84375 0.601562 2.875 0.96875 L 2.1875 1.203125 C 2.21875 0.0859375 2.234375 -0.648438 2.234375 -1.015625 L 2.234375 -5.625 C 1.671875 -4.71875 1.128906 -3.988281 0.609375 -3.4375 L 0.46875 -3.53125 C 1.050781 -4.425781 1.570312 -5.429688 2.03125 -6.546875 C 2.5 -7.660156 2.859375 -8.695312 3.109375 -9.65625 L 4.09375 -9.0625 L 3.625 -8.78125 C 3.125 -7.632812 2.796875 -6.859375 2.640625 -6.453125 L 3.203125 -6.125 L 2.828125 -5.859375 Z M 5.34375 -5.984375 L 5.34375 -4.59375 L 8.921875 -4.59375 L 8.921875 -5.984375 Z M 5.34375 -4.3125 L 5.34375 -2.921875 L 8.921875 -2.921875 L 8.921875 -4.3125 Z M 5.34375 -2.640625 L 5.34375 -1.25 L 8.921875 -1.25 L 8.921875 -2.640625 Z M 5.34375 -0.96875 L 5.34375 0.421875 L 8.921875 0.421875 L 8.921875 -0.96875 Z M 6.59375 -7.890625 C 6.625 -8.609375 6.625 -9.210938 6.59375 -9.703125 L 7.65625 -9.203125 L 7.296875 -8.921875 L 7.25 -7.890625 L 9.34375 -7.890625 L 9.9375 -8.5 L 10.828125 -7.625 L 7.25 -7.625 L 7.203125 -6.265625 L 8.828125 -6.265625 L 9.25 -6.734375 L 9.9375 -6.125 L 9.515625 -5.859375 L 9.515625 0.421875 L 9.9375 0.421875 L 10.546875 -0.1875 L 11.421875 0.703125 L 4.546875 0.703125 C 4.148438 0.703125 3.78125 0.75 3.4375 0.84375 L 3.015625 0.421875 L 4.734375 0.421875 L 4.734375 -4.734375 C 4.734375 -5.109375 4.71875 -5.742188 4.6875 -6.640625 L 5.34375 -6.265625 L 6.546875 -6.265625 L 6.59375 -7.625 L 5.203125 -7.625 C 4.796875 -7.625 4.425781 -7.578125 4.09375 -7.484375 L 3.671875 -7.890625 Z M 6.59375 -7.890625 "/>
</g>
<g id="glyph-1-0">
<path d="M 5.328125 -3.8125 C 5.328125 -4.796875 5.265625 -5.75 4.84375 -6.65625 C 4.359375 -7.640625 3.5 -7.90625 2.90625 -7.90625 C 2.21875 -7.90625 1.375 -7.5625 0.9375 -6.578125 C 0.609375 -5.828125 0.484375 -5.09375 0.484375 -3.8125 C 0.484375 -2.65625 0.578125 -1.78125 1 -0.9375 C 1.46875 -0.03125 2.28125 0.25 2.90625 0.25 C 3.9375 0.25 4.53125 -0.375 4.875 -1.0625 C 5.296875 -1.953125 5.328125 -3.109375 5.328125 -3.8125 Z M 2.90625 0.015625 C 2.515625 0.015625 1.75 -0.203125 1.515625 -1.5 C 1.390625 -2.21875 1.390625 -3.109375 1.390625 -3.953125 C 1.390625 -4.921875 1.390625 -5.796875 1.578125 -6.5 C 1.78125 -7.296875 2.390625 -7.671875 2.90625 -7.671875 C 3.359375 -7.671875 4.046875 -7.390625 4.265625 -6.375 C 4.421875 -5.703125 4.421875 -4.75 4.421875 -3.953125 C 4.421875 -3.15625 4.421875 -2.25 4.296875 -1.515625 C 4.0625 -0.21875 3.3125 0.015625 2.90625 0.015625 Z M 2.90625 0.015625 "/>
</g>
<g id="glyph-1-1">
<path d="M 3.421875 -7.625 C 3.421875 -7.890625 3.421875 -7.90625 3.1875 -7.90625 C 2.90625 -7.59375 2.3125 -7.140625 1.078125 -7.140625 L 1.078125 -6.796875 C 1.359375 -6.796875 1.953125 -6.796875 2.609375 -7.109375 L 2.609375 -0.921875 C 2.609375 -0.484375 2.5625 -0.34375 1.515625 -0.34375 L 1.15625 -0.34375 L 1.15625 0 C 1.46875 -0.03125 2.625 -0.03125 3.015625 -0.03125 C 3.40625 -0.03125 4.546875 -0.03125 4.875 0 L 4.875 -0.34375 L 4.5 -0.34375 C 3.453125 -0.34375 3.421875 -0.484375 3.421875 -0.921875 Z M 3.421875 -7.625 "/>
</g>
<g id="glyph-2-0">
<path d="M 2.75 -7.953125 C 2.765625 -8 2.78125 -8.078125 2.78125 -8.140625 C 2.78125 -8.25 2.65625 -8.25 2.640625 -8.25 C 2.625 -8.25 2.203125 -8.21875 1.984375 -8.1875 C 1.78125 -8.1875 1.609375 -8.15625 1.390625 -8.140625 C 1.109375 -8.125 1.015625 -8.109375 1.015625 -7.890625 C 1.015625 -7.78125 1.140625 -7.78125 1.265625 -7.78125 C 1.859375 -7.78125 1.859375 -7.671875 1.859375 -7.546875 C 1.859375 -7.46875 1.765625 -7.125 1.71875 -6.90625 L 1.4375 -5.765625 C 1.3125 -5.296875 0.640625 -2.59375 0.59375 -2.375 C 0.53125 -2.078125 0.53125 -1.875 0.53125 -1.71875 C 0.53125 -0.515625 1.21875 0.125 1.984375 0.125 C 3.359375 0.125 4.796875 -1.65625 4.796875 -3.375 C 4.796875 -4.46875 4.171875 -5.25 3.28125 -5.25 C 2.65625 -5.25 2.109375 -4.734375 1.875 -4.5 Z M 2 -0.125 C 1.609375 -0.125 1.203125 -0.40625 1.203125 -1.328125 C 1.203125 -1.71875 1.234375 -1.953125 1.453125 -2.78125 C 1.484375 -2.9375 1.671875 -3.703125 1.71875 -3.859375 C 1.75 -3.953125 2.453125 -5 3.265625 -5 C 3.78125 -5 4.015625 -4.484375 4.015625 -3.859375 C 4.015625 -3.296875 3.6875 -1.953125 3.390625 -1.328125 C 3.09375 -0.6875 2.546875 -0.125 2 -0.125 Z M 2 -0.125 "/>
</g>
<g id="glyph-2-1">
<path d="M 3.578125 -1.421875 C 3.515625 -1.21875 3.515625 -1.1875 3.359375 -0.96875 C 3.09375 -0.625 2.5625 -0.125 2.015625 -0.125 C 1.515625 -0.125 1.25 -0.5625 1.25 -1.265625 C 1.25 -1.921875 1.609375 -3.25 1.84375 -3.75 C 2.25 -4.578125 2.8125 -5 3.265625 -5 C 4.0625 -5 4.203125 -4.03125 4.203125 -3.9375 C 4.203125 -3.921875 4.171875 -3.765625 4.15625 -3.75 Z M 4.34375 -4.453125 C 4.203125 -4.765625 3.890625 -5.25 3.265625 -5.25 C 1.921875 -5.25 0.46875 -3.5 0.46875 -1.75 C 0.46875 -0.578125 1.171875 0.125 1.96875 0.125 C 2.625 0.125 3.1875 -0.390625 3.515625 -0.78125 C 3.640625 -0.078125 4.203125 0.125 4.546875 0.125 C 4.90625 0.125 5.203125 -0.09375 5.40625 -0.515625 C 5.59375 -0.921875 5.765625 -1.65625 5.765625 -1.703125 C 5.765625 -1.765625 5.71875 -1.8125 5.640625 -1.8125 C 5.546875 -1.8125 5.53125 -1.75 5.484375 -1.5625 C 5.296875 -0.875 5.078125 -0.125 4.59375 -0.125 C 4.25 -0.125 4.21875 -0.421875 4.21875 -0.671875 C 4.21875 -0.9375 4.25 -1.0625 4.359375 -1.53125 C 4.453125 -1.828125 4.5 -2.09375 4.609375 -2.4375 C 5.046875 -4.21875 5.15625 -4.65625 5.15625 -4.71875 C 5.15625 -4.890625 5.015625 -5.015625 4.84375 -5.015625 C 4.453125 -5.015625 4.359375 -4.609375 4.34375 -4.453125 Z M 4.34375 -4.453125 "/>
</g>
<g id="glyph-2-2">
<path d="M 0.515625 1.515625 C 0.421875 1.859375 0.375 1.96875 -0.109375 1.96875 C -0.25 1.96875 -0.375 1.96875 -0.375 2.1875 C -0.375 2.21875 -0.359375 2.3125 -0.21875 2.3125 C -0.078125 2.3125 0.09375 2.28125 0.25 2.28125 L 0.765625 2.28125 C 1.015625 2.28125 1.609375 2.3125 1.859375 2.3125 C 1.9375 2.3125 2.078125 2.3125 2.078125 2.09375 C 2.078125 1.96875 2 1.96875 1.796875 1.96875 C 1.25 1.96875 1.21875 1.875 1.21875 1.78125 C 1.21875 1.640625 1.75 -0.40625 1.8125 -0.671875 C 1.953125 -0.34375 2.265625 0.125 2.890625 0.125 C 4.234375 0.125 5.6875 -1.625 5.6875 -3.375 C 5.6875 -4.46875 5.0625 -5.25 4.171875 -5.25 C 3.40625 -5.25 2.765625 -4.5 2.640625 -4.34375 C 2.546875 -4.9375 2.078125 -5.25 1.609375 -5.25 C 1.265625 -5.25 0.984375 -5.078125 0.765625 -4.625 C 0.546875 -4.203125 0.375 -3.46875 0.375 -3.421875 C 0.375 -3.375 0.421875 -3.3125 0.515625 -3.3125 C 0.609375 -3.3125 0.625 -3.328125 0.6875 -3.609375 C 0.875 -4.296875 1.09375 -5 1.5625 -5 C 1.84375 -5 1.9375 -4.8125 1.9375 -4.453125 C 1.9375 -4.171875 1.90625 -4.0625 1.859375 -3.84375 Z M 2.5625 -3.703125 C 2.65625 -4.046875 2.984375 -4.390625 3.171875 -4.546875 C 3.3125 -4.671875 3.703125 -5 4.15625 -5 C 4.671875 -5 4.90625 -4.484375 4.90625 -3.859375 C 4.90625 -3.296875 4.578125 -1.953125 4.28125 -1.328125 C 3.984375 -0.6875 3.4375 -0.125 2.890625 -0.125 C 2.078125 -0.125 1.953125 -1.140625 1.953125 -1.1875 C 1.953125 -1.21875 1.96875 -1.3125 1.984375 -1.375 Z M 2.5625 -3.703125 "/>
</g>
<g id="glyph-2-3">
<path d="M 7.546875 -8.265625 C 7.546875 -8.375 7.46875 -8.375 7.4375 -8.375 C 7.390625 -8.375 7.390625 -8.359375 7.234375 -8.1875 C 7.171875 -8.09375 6.6875 -7.484375 6.671875 -7.46875 C 6.28125 -8.234375 5.5 -8.375 5 -8.375 C 3.484375 -8.375 2.109375 -6.984375 2.109375 -5.640625 C 2.109375 -4.75 2.65625 -4.234375 3.234375 -4.03125 C 3.359375 -3.984375 4.0625 -3.796875 4.421875 -3.703125 C 5.03125 -3.546875 5.1875 -3.5 5.4375 -3.234375 C 5.484375 -3.171875 5.71875 -2.90625 5.71875 -2.34375 C 5.71875 -1.234375 4.703125 -0.09375 3.5 -0.09375 C 2.53125 -0.09375 1.453125 -0.515625 1.453125 -1.84375 C 1.453125 -2.0625 1.5 -2.359375 1.53125 -2.46875 C 1.53125 -2.515625 1.546875 -2.5625 1.546875 -2.59375 C 1.546875 -2.640625 1.515625 -2.703125 1.421875 -2.703125 C 1.3125 -2.703125 1.3125 -2.671875 1.265625 -2.46875 L 0.65625 -0.03125 C 0.65625 -0.03125 0.609375 0.125 0.609375 0.140625 C 0.609375 0.25 0.703125 0.25 0.71875 0.25 C 0.765625 0.25 0.78125 0.234375 0.921875 0.0625 L 1.46875 -0.65625 C 1.765625 -0.21875 2.375 0.25 3.484375 0.25 C 5.015625 0.25 6.421875 -1.234375 6.421875 -2.71875 C 6.421875 -3.21875 6.296875 -3.65625 5.84375 -4.109375 C 5.59375 -4.359375 5.390625 -4.40625 4.296875 -4.703125 C 3.5 -4.90625 3.390625 -4.953125 3.171875 -5.140625 C 2.96875 -5.34375 2.8125 -5.625 2.8125 -6.03125 C 2.8125 -7.03125 3.828125 -8.046875 4.953125 -8.046875 C 6.125 -8.046875 6.671875 -7.34375 6.671875 -6.203125 C 6.671875 -5.890625 6.609375 -5.578125 6.609375 -5.53125 C 6.609375 -5.421875 6.703125 -5.421875 6.734375 -5.421875 C 6.84375 -5.421875 6.859375 -5.453125 6.90625 -5.640625 Z M 7.546875 -8.265625 "/>
</g>
<g id="glyph-3-0">
<path d="M 2.484375 -5.046875 C 2.484375 -5.265625 2.46875 -5.265625 2.25 -5.265625 C 1.9375 -4.953125 1.515625 -4.765625 0.765625 -4.765625 L 0.765625 -4.5 C 0.96875 -4.5 1.40625 -4.5 1.859375 -4.71875 L 1.859375 -0.65625 C 1.859375 -0.359375 1.84375 -0.265625 1.078125 -0.265625 L 0.8125 -0.265625 L 0.8125 0 C 1.140625 -0.03125 1.8125 -0.03125 2.171875 -0.03125 C 2.53125 -0.03125 3.21875 -0.03125 3.546875 0 L 3.546875 -0.265625 L 3.265625 -0.265625 C 2.515625 -0.265625 2.484375 -0.359375 2.484375 -0.65625 Z M 2.484375 -5.046875 "/>
</g>
<g id="glyph-3-1">
<path d="M 2.234375 -1.609375 C 2.359375 -1.734375 2.6875 -2 2.8125 -2.109375 C 3.3125 -2.5625 3.78125 -3 3.78125 -3.71875 C 3.78125 -4.65625 2.984375 -5.265625 2 -5.265625 C 1.046875 -5.265625 0.421875 -4.546875 0.421875 -3.84375 C 0.421875 -3.453125 0.734375 -3.40625 0.84375 -3.40625 C 1 -3.40625 1.25 -3.515625 1.25 -3.8125 C 1.25 -4.234375 0.859375 -4.234375 0.765625 -4.234375 C 0.984375 -4.8125 1.515625 -5 1.90625 -5 C 2.640625 -5 3.03125 -4.375 3.03125 -3.71875 C 3.03125 -2.890625 2.453125 -2.296875 1.515625 -1.328125 L 0.515625 -0.296875 C 0.421875 -0.21875 0.421875 -0.203125 0.421875 0 L 3.546875 0 L 3.78125 -1.421875 L 3.53125 -1.421875 C 3.515625 -1.265625 3.453125 -0.859375 3.34375 -0.71875 C 3.296875 -0.65625 2.703125 -0.65625 2.578125 -0.65625 L 1.171875 -0.65625 Z M 2.234375 -1.609375 "/>
</g>
<g id="glyph-3-2">
<path d="M 2 -2.640625 C 2.625 -2.640625 3.03125 -2.1875 3.03125 -1.359375 C 3.03125 -0.359375 2.46875 -0.078125 2.046875 -0.078125 C 1.609375 -0.078125 1.015625 -0.234375 0.734375 -0.65625 C 1.015625 -0.65625 1.21875 -0.828125 1.21875 -1.09375 C 1.21875 -1.34375 1.03125 -1.53125 0.78125 -1.53125 C 0.578125 -1.53125 0.34375 -1.390625 0.34375 -1.078125 C 0.34375 -0.328125 1.15625 0.171875 2.0625 0.171875 C 3.109375 0.171875 3.84375 -0.5625 3.84375 -1.359375 C 3.84375 -2.015625 3.328125 -2.609375 2.515625 -2.78125 C 3.140625 -3.015625 3.609375 -3.546875 3.609375 -4.1875 C 3.609375 -4.8125 2.90625 -5.265625 2.078125 -5.265625 C 1.234375 -5.265625 0.59375 -4.8125 0.59375 -4.203125 C 0.59375 -3.90625 0.78125 -3.78125 0.984375 -3.78125 C 1.234375 -3.78125 1.390625 -3.96875 1.390625 -4.1875 C 1.390625 -4.484375 1.140625 -4.59375 0.96875 -4.609375 C 1.296875 -5.03125 1.90625 -5.0625 2.046875 -5.0625 C 2.25 -5.0625 2.859375 -5 2.859375 -4.1875 C 2.859375 -3.625 2.625 -3.296875 2.515625 -3.171875 C 2.28125 -2.921875 2.09375 -2.90625 1.609375 -2.875 C 1.46875 -2.875 1.40625 -2.859375 1.40625 -2.75 C 1.40625 -2.640625 1.46875 -2.640625 1.609375 -2.640625 Z M 2 -2.640625 "/>
</g>
<g id="glyph-3-3">
<path d="M 3.125 -5.125 C 3.125 -5.28125 3.125 -5.34375 2.953125 -5.34375 C 2.859375 -5.34375 2.84375 -5.34375 2.765625 -5.234375 L 0.234375 -1.5625 L 0.234375 -1.296875 L 2.46875 -1.296875 L 2.46875 -0.640625 C 2.46875 -0.34375 2.453125 -0.265625 1.84375 -0.265625 L 1.65625 -0.265625 L 1.65625 0 C 2.328125 -0.03125 2.34375 -0.03125 2.796875 -0.03125 C 3.25 -0.03125 3.265625 -0.03125 3.9375 0 L 3.9375 -0.265625 L 3.75 -0.265625 C 3.140625 -0.265625 3.125 -0.34375 3.125 -0.640625 L 3.125 -1.296875 L 3.96875 -1.296875 L 3.96875 -1.5625 L 3.125 -1.5625 Z M 2.53125 -4.484375 L 2.53125 -1.5625 L 0.515625 -1.5625 Z M 2.53125 -4.484375 "/>
</g>
<g id="glyph-3-4">
<path d="M 1.109375 -4.453125 C 1.21875 -4.421875 1.53125 -4.34375 1.859375 -4.34375 C 2.859375 -4.34375 3.453125 -5.03125 3.453125 -5.15625 C 3.453125 -5.25 3.40625 -5.265625 3.359375 -5.265625 C 3.34375 -5.265625 3.328125 -5.265625 3.25 -5.234375 C 2.953125 -5.109375 2.578125 -5.015625 2.15625 -5.015625 C 1.6875 -5.015625 1.296875 -5.140625 1.046875 -5.234375 C 0.96875 -5.265625 0.953125 -5.265625 0.953125 -5.265625 C 0.84375 -5.265625 0.84375 -5.1875 0.84375 -5.03125 L 0.84375 -2.71875 C 0.84375 -2.578125 0.84375 -2.484375 0.96875 -2.484375 C 1.03125 -2.484375 1.0625 -2.515625 1.09375 -2.578125 C 1.203125 -2.6875 1.5 -3.09375 2.171875 -3.09375 C 2.609375 -3.09375 2.828125 -2.734375 2.90625 -2.578125 C 3.03125 -2.296875 3.046875 -1.9375 3.046875 -1.625 C 3.046875 -1.328125 3.046875 -0.90625 2.8125 -0.546875 C 2.671875 -0.3125 2.359375 -0.078125 1.9375 -0.078125 C 1.421875 -0.078125 0.90625 -0.390625 0.734375 -0.90625 C 0.75 -0.90625 0.796875 -0.90625 0.8125 -0.90625 C 1.03125 -0.90625 1.203125 -1.046875 1.203125 -1.296875 C 1.203125 -1.578125 0.96875 -1.6875 0.8125 -1.6875 C 0.671875 -1.6875 0.421875 -1.609375 0.421875 -1.265625 C 0.421875 -0.546875 1.03125 0.171875 1.953125 0.171875 C 2.9375 0.171875 3.78125 -0.609375 3.78125 -1.578125 C 3.78125 -2.5 3.109375 -3.3125 2.171875 -3.3125 C 1.78125 -3.3125 1.40625 -3.1875 1.109375 -2.921875 Z M 1.109375 -4.453125 "/>
</g>
<g id="glyph-3-5">
<path d="M 1.09375 -2.625 C 1.09375 -3.28125 1.15625 -3.859375 1.4375 -4.34375 C 1.671875 -4.734375 2.078125 -5.0625 2.578125 -5.0625 C 2.734375 -5.0625 3.09375 -5.03125 3.28125 -4.765625 C 2.921875 -4.75 2.890625 -4.46875 2.890625 -4.390625 C 2.890625 -4.15625 3.078125 -4.015625 3.265625 -4.015625 C 3.40625 -4.015625 3.640625 -4.109375 3.640625 -4.40625 C 3.640625 -4.875 3.28125 -5.265625 2.5625 -5.265625 C 1.46875 -5.265625 0.34375 -4.21875 0.34375 -2.515625 C 0.34375 -0.359375 1.34375 0.171875 2.109375 0.171875 C 2.5 0.171875 2.90625 0.0625 3.265625 -0.28125 C 3.578125 -0.59375 3.84375 -0.921875 3.84375 -1.609375 C 3.84375 -2.640625 3.0625 -3.375 2.1875 -3.375 C 1.609375 -3.375 1.28125 -3.015625 1.09375 -2.625 Z M 2.109375 -0.078125 C 1.6875 -0.078125 1.4375 -0.359375 1.3125 -0.59375 C 1.140625 -0.9375 1.109375 -1.484375 1.109375 -1.78125 C 1.109375 -2.5625 1.546875 -3.15625 2.15625 -3.15625 C 2.546875 -3.15625 2.78125 -2.953125 2.9375 -2.671875 C 3.109375 -2.375 3.109375 -2.015625 3.109375 -1.609375 C 3.109375 -1.21875 3.109375 -0.859375 2.953125 -0.578125 C 2.734375 -0.21875 2.46875 -0.078125 2.109375 -0.078125 Z M 2.109375 -0.078125 "/>
</g>
<g id="glyph-3-6">
<path d="M 4.015625 -4.828125 C 4.078125 -4.90625 4.078125 -4.921875 4.078125 -5.109375 L 2.0625 -5.109375 C 1.875 -5.109375 1.625 -5.109375 1.421875 -5.125 C 1.015625 -5.15625 1 -5.234375 0.984375 -5.359375 L 0.734375 -5.359375 L 0.46875 -3.6875 L 0.71875 -3.6875 C 0.734375 -3.796875 0.8125 -4.34375 0.921875 -4.40625 C 1.015625 -4.453125 1.609375 -4.453125 1.734375 -4.453125 L 3.40625 -4.453125 L 2.59375 -3.359375 C 1.6875 -2.15625 1.5 -0.90625 1.5 -0.28125 C 1.5 -0.203125 1.5 0.171875 1.875 0.171875 C 2.234375 0.171875 2.234375 -0.1875 2.234375 -0.28125 L 2.234375 -0.671875 C 2.234375 -1.8125 2.4375 -2.734375 2.8125 -3.25 Z M 4.015625 -4.828125 "/>
</g>
<g id="glyph-4-0">
<path d="M 2.796875 -7.40625 C 2.796875 -7.421875 2.796875 -7.53125 2.65625 -7.53125 C 2.40625 -7.53125 1.609375 -7.4375 1.328125 -7.421875 C 1.25 -7.40625 1.125 -7.390625 1.125 -7.1875 C 1.125 -7.0625 1.234375 -7.0625 1.40625 -7.0625 C 1.921875 -7.0625 1.9375 -6.96875 1.9375 -6.890625 L 1.890625 -6.671875 L 0.53125 -1.25 C 0.5 -1.125 0.484375 -1.046875 0.484375 -0.875 C 0.484375 -0.265625 0.953125 0.125 1.46875 0.125 C 1.828125 0.125 2.09375 -0.09375 2.28125 -0.484375 C 2.46875 -0.90625 2.609375 -1.53125 2.609375 -1.546875 C 2.609375 -1.65625 2.5 -1.65625 2.46875 -1.65625 C 2.359375 -1.65625 2.359375 -1.609375 2.328125 -1.46875 C 2.140625 -0.765625 1.9375 -0.125 1.5 -0.125 C 1.171875 -0.125 1.171875 -0.46875 1.171875 -0.625 C 1.171875 -0.875 1.1875 -0.9375 1.234375 -1.140625 Z M 2.796875 -7.40625 "/>
</g>
<g id="glyph-5-0">
<path d="M 6.359375 -5.734375 C 6.640625 -5.734375 6.765625 -5.734375 6.765625 -6 C 6.765625 -6.15625 6.640625 -6.15625 6.390625 -6.15625 L 5.234375 -6.15625 C 5.5 -7.625 5.703125 -8.625 5.828125 -9.09375 C 5.90625 -9.421875 6.203125 -9.75 6.578125 -9.75 C 6.875 -9.75 7.171875 -9.625 7.3125 -9.5 C 6.765625 -9.4375 6.59375 -9.03125 6.59375 -8.78125 C 6.59375 -8.5 6.796875 -8.328125 7.078125 -8.328125 C 7.359375 -8.328125 7.78125 -8.578125 7.78125 -9.109375 C 7.78125 -9.71875 7.1875 -10.046875 6.5625 -10.046875 C 5.953125 -10.046875 5.34375 -9.59375 5.0625 -9.03125 C 4.8125 -8.53125 4.671875 -8.015625 4.34375 -6.15625 L 3.375 -6.15625 C 3.109375 -6.15625 2.96875 -6.15625 2.96875 -5.890625 C 2.96875 -5.734375 3.046875 -5.734375 3.34375 -5.734375 L 4.25 -5.734375 C 4 -4.40625 3.40625 -1.1875 3.078125 0.34375 C 2.84375 1.578125 2.625 2.625 1.90625 2.625 C 1.875 2.625 1.453125 2.625 1.203125 2.359375 C 1.921875 2.296875 1.921875 1.671875 1.921875 1.65625 C 1.921875 1.375 1.71875 1.203125 1.4375 1.203125 C 1.15625 1.203125 0.734375 1.4375 0.734375 1.984375 C 0.734375 2.59375 1.359375 2.90625 1.90625 2.90625 C 3.359375 2.90625 3.96875 0.296875 4.125 -0.40625 C 4.375 -1.515625 5.078125 -5.3125 5.15625 -5.734375 Z M 6.359375 -5.734375 "/>
</g>
<g id="glyph-6-0">
<path d="M 2.90625 -6.34375 C 2.90625 -6.578125 2.90625 -6.59375 2.6875 -6.59375 C 2.078125 -5.96875 1.203125 -5.96875 0.875 -5.96875 L 0.875 -5.65625 C 1.078125 -5.65625 1.671875 -5.65625 2.171875 -5.90625 L 2.171875 -0.78125 C 2.171875 -0.421875 2.15625 -0.3125 1.265625 -0.3125 L 0.9375 -0.3125 L 0.9375 0 C 1.28125 -0.03125 2.15625 -0.03125 2.546875 -0.03125 C 2.9375 -0.03125 3.796875 -0.03125 4.15625 0 L 4.15625 -0.3125 L 3.828125 -0.3125 C 2.9375 -0.3125 2.90625 -0.421875 2.90625 -0.78125 Z M 2.90625 -6.34375 "/>
</g>
<g id="glyph-6-1">
<path d="M 1.265625 -0.765625 L 2.3125 -1.78125 C 3.859375 -3.15625 4.453125 -3.6875 4.453125 -4.671875 C 4.453125 -5.8125 3.5625 -6.59375 2.34375 -6.59375 C 1.234375 -6.59375 0.5 -5.6875 0.5 -4.796875 C 0.5 -4.25 0.984375 -4.25 1.015625 -4.25 C 1.1875 -4.25 1.53125 -4.375 1.53125 -4.78125 C 1.53125 -5.03125 1.359375 -5.296875 1.015625 -5.296875 C 0.9375 -5.296875 0.90625 -5.296875 0.875 -5.28125 C 1.109375 -5.921875 1.640625 -6.296875 2.21875 -6.296875 C 3.125 -6.296875 3.546875 -5.484375 3.546875 -4.671875 C 3.546875 -3.890625 3.046875 -3.09375 2.5 -2.484375 L 0.609375 -0.359375 C 0.5 -0.25 0.5 -0.234375 0.5 0 L 4.171875 0 L 4.453125 -1.71875 L 4.203125 -1.71875 C 4.15625 -1.421875 4.078125 -0.984375 3.984375 -0.84375 C 3.90625 -0.765625 3.265625 -0.765625 3.046875 -0.765625 Z M 1.265625 -0.765625 "/>
</g>
<g id="glyph-6-2">
<path d="M 2.875 -3.484375 C 3.6875 -3.75 4.265625 -4.453125 4.265625 -5.234375 C 4.265625 -6.046875 3.390625 -6.59375 2.4375 -6.59375 C 1.4375 -6.59375 0.6875 -6 0.6875 -5.25 C 0.6875 -4.921875 0.90625 -4.734375 1.1875 -4.734375 C 1.5 -4.734375 1.6875 -4.953125 1.6875 -5.234375 C 1.6875 -5.734375 1.234375 -5.734375 1.078125 -5.734375 C 1.390625 -6.21875 2.046875 -6.34375 2.390625 -6.34375 C 2.796875 -6.34375 3.34375 -6.125 3.34375 -5.234375 C 3.34375 -5.125 3.328125 -4.546875 3.078125 -4.109375 C 2.78125 -3.640625 2.4375 -3.609375 2.1875 -3.59375 C 2.109375 -3.59375 1.875 -3.5625 1.796875 -3.5625 C 1.71875 -3.5625 1.65625 -3.546875 1.65625 -3.453125 C 1.65625 -3.34375 1.71875 -3.34375 1.890625 -3.34375 L 2.328125 -3.34375 C 3.140625 -3.34375 3.5 -2.671875 3.5 -1.6875 C 3.5 -0.34375 2.828125 -0.0625 2.390625 -0.0625 C 1.96875 -0.0625 1.21875 -0.234375 0.875 -0.8125 C 1.21875 -0.765625 1.53125 -0.984375 1.53125 -1.359375 C 1.53125 -1.71875 1.265625 -1.90625 0.96875 -1.90625 C 0.734375 -1.90625 0.421875 -1.765625 0.421875 -1.34375 C 0.421875 -0.4375 1.34375 0.21875 2.421875 0.21875 C 3.625 0.21875 4.53125 -0.6875 4.53125 -1.6875 C 4.53125 -2.5 3.90625 -3.28125 2.875 -3.484375 Z M 2.875 -3.484375 "/>
</g>
</g>
</defs>
<path fill="none" stroke-width="0.3985" stroke-linecap="butt" stroke-linejoin="miter" stroke="rgb(0%, 0%, 0%)" stroke-opacity="1" stroke-miterlimit="10" d="M -0.00056554 0.000850697 L 298.423778 0.000850697 " transform="matrix(0.994625, 0, 0, -0.994625, 53.727125, 142.49694)"/>
<path fill="none" stroke-width="0.31879" stroke-linecap="round" stroke-linejoin="round" stroke="rgb(0%, 0%, 0%)" stroke-opacity="1" stroke-miterlimit="10" d="M -1.194909 1.595359 C -1.096726 0.994473 -0.000992194 0.0990347 0.297487 0.000850697 C -0.000992194 -0.101261 -1.096726 -0.996699 -1.194909 -1.593657 " transform="matrix(0.994625, 0, 0, -0.994625, 350.547862, 142.49694)"/>
<g fill="rgb(0%, 0%, 0%)" fill-opacity="1">
<use xlink:href="#glyph-0-0" x="355.16514" y="146.816596"/>
<use xlink:href="#glyph-0-1" x="367.056081" y="146.816596"/>
</g>
<path fill="none" stroke-width="0.3985" stroke-linecap="butt" stroke-linejoin="miter" stroke="rgb(0%, 0%, 0%)" stroke-opacity="1" stroke-miterlimit="10" d="M -0.00056554 0.000850697 L -0.00056554 83.229454 " transform="matrix(0.994625, 0, 0, -0.994625, 53.727125, 142.49694)"/>
<path fill="none" stroke-width="0.31879" stroke-linecap="round" stroke-linejoin="round" stroke="rgb(0%, 0%, 0%)" stroke-opacity="1" stroke-miterlimit="10" d="M -1.19736 1.595074 C -1.095249 0.998115 0.000484443 0.0987495 0.298964 0.00056554 C 0.000484443 -0.101546 -1.095249 -0.996984 -1.19736 -1.593942 " transform="matrix(0, -0.994625, -0.994625, 0, 53.727125, 59.715326)"/>
<g fill="rgb(0%, 0%, 0%)" fill-opacity="1">
<use xlink:href="#glyph-1-0" x="43.744074" y="154.321042"/>
</g>
<g fill="rgb(0%, 0%, 0%)" fill-opacity="1">
<use xlink:href="#glyph-0-2" x="13.892394" y="63.50979"/>
<use xlink:href="#glyph-0-3" x="25.783335" y="63.50979"/>
<use xlink:href="#glyph-0-4" x="37.674275" y="63.50979"/>
</g>
<path fill="none" stroke-width="0.3985" stroke-linecap="butt" stroke-linejoin="miter" stroke="rgb(0%, 0%, 0%)" stroke-opacity="1" stroke-dasharray="2.98883 2.98883 0.99628 2.98883" stroke-miterlimit="10" d="M -0.00056554 95.643838 L 298.883279 95.643838 M -0.00056554 107.59872 L 298.883279 107.59872 " transform="matrix(0.994625, 0, 0, -0.994625, 53.727125, 142.49694)"/>
<g fill="rgb(0%, 0%, 0%)" fill-opacity="1">
<use xlink:href="#glyph-2-0" x="355.16514" y="51.497704"/>
</g>
<g fill="rgb(0%, 0%, 0%)" fill-opacity="1">
<use xlink:href="#glyph-2-1" x="355.16514" y="38.037444"/>
</g>
<path fill="none" stroke-width="0.3985" stroke-linecap="butt" stroke-linejoin="miter" stroke="rgb(0%, 0%, 0%)" stroke-opacity="1" stroke-dasharray="2.98883 5.97766" stroke-miterlimit="10" d="M -0.00056554 71.730146 L 298.883279 71.730146 " transform="matrix(0.994625, 0, 0, -0.994625, 53.727125, 142.49694)"/>
<g fill="rgb(0%, 0%, 0%)" fill-opacity="1">
<use xlink:href="#glyph-1-1" x="43.744074" y="74.981795"/>
</g>
<path fill="none" stroke-width="0.3985" stroke-linecap="butt" stroke-linejoin="miter" stroke="rgb(0%, 0%, 0%)" stroke-opacity="1" stroke-miterlimit="10" d="M -0.00056554 71.730146 L 50.721283 21.008297 L 76.084171 46.371185 L 92.991454 29.463902 L 135.257698 71.730146 " transform="matrix(0.994625, 0, 0, -0.994625, 53.727125, 142.49694)"/>
<path fill="none" stroke-width="0.3985" stroke-linecap="butt" stroke-linejoin="miter" stroke="rgb(0%, 0%, 0%)" stroke-opacity="1" stroke-miterlimit="10" d="M 155.420762 71.730146 L 172.328044 54.822863 L 189.235327 71.730146 " transform="matrix(0.994625, 0, 0, -0.994625, 53.727125, 142.49694)"/>
<path fill="none" stroke-width="0.3985" stroke-linecap="butt" stroke-linejoin="miter" stroke="rgb(0%, 0%, 0%)" stroke-opacity="1" stroke-miterlimit="10" d="M 203.240292 71.730146 L 203.240292 71.718364 L 274.973514 -0.0109314 " transform="matrix(0.994625, 0, 0, -0.994625, 53.727125, 142.49694)"/>
<path fill-rule="nonzero" fill="rgb(0%, 0%, 0%)" fill-opacity="1" d="M 55.707031 47.367188 C 55.707031 46.273438 54.820312 45.386719 53.726562 45.386719 C 52.632812 45.386719 51.746094 46.273438 51.746094 47.367188 C 51.746094 48.464844 52.632812 49.351562 53.726562 49.351562 C 54.820312 49.351562 55.707031 48.464844 55.707031 47.367188 Z M 55.707031 35.476562 C 55.707031 34.382812 54.820312 33.496094 53.726562 33.496094 C 52.632812 33.496094 51.746094 34.382812 51.746094 35.476562 C 51.746094 36.570312 52.632812 37.460938 53.726562 37.460938 C 54.820312 37.460938 55.707031 36.570312 55.707031 35.476562 Z M 55.707031 35.476562 "/>
<g fill="rgb(0%, 0%, 0%)" fill-opacity="1">
<use xlink:href="#glyph-2-2" x="39.213557" y="42.379977"/>
</g>
<g fill="rgb(0%, 0%, 0%)" fill-opacity="1">
<use xlink:href="#glyph-3-0" x="45.057974" y="44.163339"/>
</g>
<path fill-rule="nonzero" fill="rgb(0%, 0%, 0%)" fill-opacity="1" d="M 106.160156 47.367188 C 106.160156 46.273438 105.269531 45.386719 104.175781 45.386719 C 103.082031 45.386719 102.195312 46.273438 102.195312 47.367188 C 102.195312 48.464844 103.082031 49.351562 104.175781 49.351562 C 105.269531 49.351562 106.160156 48.464844 106.160156 47.367188 Z M 106.160156 35.476562 C 106.160156 34.382812 105.269531 33.496094 104.175781 33.496094 C 103.082031 33.496094 102.195312 34.382812 102.195312 35.476562 C 102.195312 36.570312 103.082031 37.460938 104.175781 37.460938 C 105.269531 37.460938 106.160156 36.570312 106.160156 35.476562 Z M 106.160156 35.476562 "/>
<g fill="rgb(0%, 0%, 0%)" fill-opacity="1">
<use xlink:href="#glyph-2-2" x="89.662926" y="42.379977"/>
</g>
<g fill="rgb(0%, 0%, 0%)" fill-opacity="1">
<use xlink:href="#glyph-3-1" x="95.507343" y="44.163339"/>
</g>
<path fill-rule="nonzero" fill="rgb(0%, 0%, 0%)" fill-opacity="1" d="M 131.382812 47.367188 C 131.382812 46.273438 130.496094 45.386719 129.402344 45.386719 C 128.308594 45.386719 127.417969 46.273438 127.417969 47.367188 C 127.417969 48.464844 128.308594 49.351562 129.402344 49.351562 C 130.496094 49.351562 131.382812 48.464844 131.382812 47.367188 Z M 131.382812 35.476562 C 131.382812 34.382812 130.496094 33.496094 129.402344 33.496094 C 128.308594 33.496094 127.417969 34.382812 127.417969 35.476562 C 127.417969 36.570312 128.308594 37.460938 129.402344 37.460938 C 130.496094 37.460938 131.382812 36.570312 131.382812 35.476562 Z M 131.382812 35.476562 "/>
<g fill="rgb(0%, 0%, 0%)" fill-opacity="1">
<use xlink:href="#glyph-2-2" x="114.887611" y="42.379977"/>
</g>
<g fill="rgb(0%, 0%, 0%)" fill-opacity="1">
<use xlink:href="#glyph-3-2" x="120.732027" y="44.163339"/>
</g>
<path fill-rule="nonzero" fill="rgb(0%, 0%, 0%)" fill-opacity="1" d="M 148.199219 47.367188 C 148.199219 46.273438 147.3125 45.386719 146.21875 45.386719 C 145.125 45.386719 144.234375 46.273438 144.234375 47.367188 C 144.234375 48.464844 145.125 49.351562 146.21875 49.351562 C 147.3125 49.351562 148.199219 48.464844 148.199219 47.367188 Z M 148.199219 35.476562 C 148.199219 34.382812 147.3125 33.496094 146.21875 33.496094 C 145.125 33.496094 144.234375 34.382812 144.234375 35.476562 C 144.234375 36.570312 145.125 37.460938 146.21875 37.460938 C 147.3125 37.460938 148.199219 36.570312 148.199219 35.476562 Z M 148.199219 35.476562 "/>
<g fill="rgb(0%, 0%, 0%)" fill-opacity="1">
<use xlink:href="#glyph-2-2" x="131.703736" y="42.379977"/>
</g>
<g fill="rgb(0%, 0%, 0%)" fill-opacity="1">
<use xlink:href="#glyph-3-3" x="137.548152" y="44.163339"/>
</g>
<path fill-rule="nonzero" fill="rgb(0%, 0%, 0%)" fill-opacity="1" d="M 210.292969 47.367188 C 210.292969 46.273438 209.40625 45.386719 208.3125 45.386719 C 207.214844 45.386719 206.328125 46.273438 206.328125 47.367188 C 206.328125 48.464844 207.214844 49.351562 208.3125 49.351562 C 209.40625 49.351562 210.292969 48.464844 210.292969 47.367188 Z M 210.292969 35.476562 C 210.292969 34.382812 209.40625 33.496094 208.3125 33.496094 C 207.214844 33.496094 206.328125 34.382812 206.328125 35.476562 C 206.328125 36.570312 207.214844 37.460938 208.3125 37.460938 C 209.40625 37.460938 210.292969 36.570312 210.292969 35.476562 Z M 210.292969 35.476562 "/>
<g fill="rgb(0%, 0%, 0%)" fill-opacity="1">
<use xlink:href="#glyph-2-2" x="193.79718" y="42.379977"/>
</g>
<g fill="rgb(0%, 0%, 0%)" fill-opacity="1">
<use xlink:href="#glyph-3-4" x="199.641596" y="44.163339"/>
</g>
<path fill-rule="nonzero" fill="rgb(0%, 0%, 0%)" fill-opacity="1" d="M 227.109375 47.367188 C 227.109375 46.273438 226.222656 45.386719 225.128906 45.386719 C 224.03125 45.386719 223.144531 46.273438 223.144531 47.367188 C 223.144531 48.464844 224.03125 49.351562 225.128906 49.351562 C 226.222656 49.351562 227.109375 48.464844 227.109375 47.367188 Z M 227.109375 35.476562 C 227.109375 34.382812 226.222656 33.496094 225.128906 33.496094 C 224.03125 33.496094 223.144531 34.382812 223.144531 35.476562 C 223.144531 36.570312 224.03125 37.460938 225.128906 37.460938 C 226.222656 37.460938 227.109375 36.570312 227.109375 35.476562 Z M 227.109375 35.476562 "/>
<g fill="rgb(0%, 0%, 0%)" fill-opacity="1">
<use xlink:href="#glyph-2-2" x="210.613305" y="42.379977"/>
</g>
<g fill="rgb(0%, 0%, 0%)" fill-opacity="1">
<use xlink:href="#glyph-3-5" x="216.457721" y="44.163339"/>
</g>
<path fill-rule="nonzero" fill="rgb(0%, 0%, 0%)" fill-opacity="1" d="M 257.855469 47.367188 C 257.855469 46.273438 256.96875 45.386719 255.875 45.386719 C 254.78125 45.386719 253.894531 46.273438 253.894531 47.367188 C 253.894531 48.464844 254.78125 49.351562 255.875 49.351562 C 256.96875 49.351562 257.855469 48.464844 257.855469 47.367188 Z M 257.855469 35.476562 C 257.855469 34.382812 256.96875 33.496094 255.875 33.496094 C 254.78125 33.496094 253.894531 34.382812 253.894531 35.476562 C 253.894531 36.570312 254.78125 37.460938 255.875 37.460938 C 256.96875 37.460938 257.855469 36.570312 257.855469 35.476562 Z M 257.855469 35.476562 "/>
<g fill="rgb(0%, 0%, 0%)" fill-opacity="1">
<use xlink:href="#glyph-2-2" x="241.361142" y="42.379977"/>
</g>
<g fill="rgb(0%, 0%, 0%)" fill-opacity="1">
<use xlink:href="#glyph-3-6" x="247.205558" y="44.163339"/>
</g>
<g fill="rgb(0%, 0%, 0%)" fill-opacity="1">
<use xlink:href="#glyph-4-0" x="74.979277" y="59.064811"/>
</g>
<g fill="rgb(0%, 0%, 0%)" fill-opacity="1">
<use xlink:href="#glyph-3-0" x="78.216782" y="60.692017"/>
</g>
<g fill="rgb(0%, 0%, 0%)" fill-opacity="1">
<use xlink:href="#glyph-4-0" x="112.816802" y="59.064811"/>
</g>
<g fill="rgb(0%, 0%, 0%)" fill-opacity="1">
<use xlink:href="#glyph-3-1" x="116.054306" y="60.692017"/>
</g>
<g fill="rgb(0%, 0%, 0%)" fill-opacity="1">
<use xlink:href="#glyph-4-0" x="133.837206" y="59.064811"/>
</g>
<g fill="rgb(0%, 0%, 0%)" fill-opacity="1">
<use xlink:href="#glyph-3-2" x="137.074711" y="60.692017"/>
</g>
<g fill="rgb(0%, 0%, 0%)" fill-opacity="1">
<use xlink:href="#glyph-4-0" x="173.291991" y="59.064811"/>
</g>
<g fill="rgb(0%, 0%, 0%)" fill-opacity="1">
<use xlink:href="#glyph-3-3" x="176.529495" y="60.692017"/>
</g>
<g fill="rgb(0%, 0%, 0%)" fill-opacity="1">
<use xlink:href="#glyph-4-0" x="212.746775" y="59.064811"/>
</g>
<g fill="rgb(0%, 0%, 0%)" fill-opacity="1">
<use xlink:href="#glyph-3-4" x="215.98428" y="60.692017"/>
</g>
<g fill="rgb(0%, 0%, 0%)" fill-opacity="1">
<use xlink:href="#glyph-4-0" x="236.529254" y="59.064811"/>
</g>
<g fill="rgb(0%, 0%, 0%)" fill-opacity="1">
<use xlink:href="#glyph-3-5" x="239.766758" y="60.692017"/>
</g>
<path fill="none" stroke-width="2.24162" stroke-linecap="butt" stroke-linejoin="miter" stroke="rgb(100%, 0%, 0%)" stroke-opacity="1" stroke-miterlimit="10" d="M -0.00056554 71.730146 L -0.00056554 0.000850697 " transform="matrix(0.994625, 0, 0, -0.994625, 53.727125, 142.49694)"/>
<path fill="none" stroke-width="2.24162" stroke-linecap="butt" stroke-linejoin="miter" stroke="rgb(100%, 0%, 0%)" stroke-opacity="1" stroke-miterlimit="10" d="M 76.084171 46.371185 L 76.084171 0.000850697 " transform="matrix(0.994625, 0, 0, -0.994625, 53.727125, 142.49694)"/>
<path fill="none" stroke-width="2.24162" stroke-linecap="butt" stroke-linejoin="miter" stroke="rgb(100%, 0%, 0%)" stroke-opacity="1" stroke-miterlimit="10" d="M 155.420762 71.730146 L 155.420762 0.000850697 " transform="matrix(0.994625, 0, 0, -0.994625, 53.727125, 142.49694)"/>
<path fill="none" stroke-width="2.24162" stroke-linecap="butt" stroke-linejoin="miter" stroke="rgb(100%, 0%, 0%)" stroke-opacity="1" stroke-miterlimit="10" d="M 203.240292 71.730146 L 203.240292 0.000850697 " transform="matrix(0.994625, 0, 0, -0.994625, 53.727125, 142.49694)"/>
<path fill="none" stroke-width="2.24162" stroke-linecap="butt" stroke-linejoin="miter" stroke="rgb(100%, 0%, 0%)" stroke-opacity="1" stroke-miterlimit="10" d="M 50.721283 21.008297 L 50.721283 71.730146 " transform="matrix(0.994625, 0, 0, -0.994625, 53.727125, 142.49694)"/>
<path fill="none" stroke-width="2.24162" stroke-linecap="butt" stroke-linejoin="miter" stroke="rgb(100%, 0%, 0%)" stroke-opacity="1" stroke-miterlimit="10" d="M 92.991454 29.463902 L 92.991454 71.730146 " transform="matrix(0.994625, 0, 0, -0.994625, 53.727125, 142.49694)"/>
<path fill="none" stroke-width="2.24162" stroke-linecap="butt" stroke-linejoin="miter" stroke="rgb(100%, 0%, 0%)" stroke-opacity="1" stroke-miterlimit="10" d="M 172.328044 54.822863 L 172.328044 71.730146 " transform="matrix(0.994625, 0, 0, -0.994625, 53.727125, 142.49694)"/>
<g fill="rgb(0%, 0%, 0%)" fill-opacity="1">
<use xlink:href="#glyph-2-3" x="57.888636" y="109.994584"/>
</g>
<g fill="rgb(0%, 0%, 0%)" fill-opacity="1">
<use xlink:href="#glyph-3-0" x="65.049936" y="111.777947"/>
</g>
<g fill="rgb(0%, 0%, 0%)" fill-opacity="1">
<use xlink:href="#glyph-2-3" x="108.338005" y="99.546048"/>
</g>
<g fill="rgb(0%, 0%, 0%)" fill-opacity="1">
<use xlink:href="#glyph-3-1" x="115.499305" y="101.329411"/>
</g>
<g fill="rgb(0%, 0%, 0%)" fill-opacity="1">
<use xlink:href="#glyph-2-3" x="133.56269" y="122.607424"/>
</g>
<g fill="rgb(0%, 0%, 0%)" fill-opacity="1">
<use xlink:href="#glyph-3-2" x="140.72399" y="124.390786"/>
</g>
<g fill="rgb(0%, 0%, 0%)" fill-opacity="1">
<use xlink:href="#glyph-2-3" x="150.379809" y="95.341769"/>
</g>
<g fill="rgb(0%, 0%, 0%)" fill-opacity="1">
<use xlink:href="#glyph-3-3" x="157.541109" y="97.125131"/>
</g>
<path fill="none" stroke-width="0.3985" stroke-linecap="butt" stroke-linejoin="miter" stroke="rgb(0%, 0%, 0%)" stroke-opacity="1" stroke-miterlimit="10" d="M -0.00056554 119.553603 C 0.372534 120.299801 1.244407 120.798576 2.48938 120.798576 L 65.13862 120.798576 C 66.383593 120.798576 67.255467 121.297351 67.628566 122.043549 C 68.001665 121.297351 68.873539 120.798576 70.118512 120.798576 L 132.767752 120.798576 C 134.012725 120.798576 134.884598 120.299801 135.257698 119.553603 " transform="matrix(0.994625, 0, 0, -0.994625, 53.727125, 142.49694)"/>
<g fill="rgb(0%, 0%, 0%)" fill-opacity="1">
<use xlink:href="#glyph-5-0" x="114.82495" y="13.875019"/>
</g>
<g fill="rgb(0%, 0%, 0%)" fill-opacity="1">
<use xlink:href="#glyph-6-0" x="121.711733" y="16.015452"/>
</g>
<path fill="none" stroke-width="0.3985" stroke-linecap="butt" stroke-linejoin="miter" stroke="rgb(0%, 0%, 0%)" stroke-opacity="1" stroke-miterlimit="10" d="M 155.420762 119.553603 C 155.793861 120.299801 156.665735 120.798576 157.910708 120.798576 L 169.834171 120.798576 C 171.083072 120.798576 171.954945 121.297351 172.328044 122.043549 C 172.701144 121.297351 173.573017 120.798576 174.81799 120.798576 L 186.741454 120.798576 C 187.990354 120.798576 188.862228 120.299801 189.235327 119.553603 " transform="matrix(0.994625, 0, 0, -0.994625, 53.727125, 142.49694)"/>
<g fill="rgb(0%, 0%, 0%)" fill-opacity="1">
<use xlink:href="#glyph-5-0" x="218.959203" y="13.875019"/>
</g>
<g fill="rgb(0%, 0%, 0%)" fill-opacity="1">
<use xlink:href="#glyph-6-1" x="225.845987" y="16.015452"/>
</g>
<path fill="none" stroke-width="0.3985" stroke-linecap="butt" stroke-linejoin="miter" stroke="rgb(0%, 0%, 0%)" stroke-opacity="1" stroke-miterlimit="10" d="M 203.240292 119.553603 C 203.613391 120.299801 204.485265 120.798576 205.730238 120.798576 L 236.614993 120.798576 C 237.859966 120.798576 238.73184 121.297351 239.104939 122.043549 C 239.478038 121.297351 240.349912 120.798576 241.594885 120.798576 L 272.479641 120.798576 C 273.724614 120.798576 274.596487 120.299801 274.973514 119.553603 " transform="matrix(0.994625, 0, 0, -0.994625, 53.727125, 142.49694)"/>
<g fill="rgb(0%, 0%, 0%)" fill-opacity="1">
<use xlink:href="#glyph-5-0" x="285.379266" y="13.875019"/>
</g>
<g fill="rgb(0%, 0%, 0%)" fill-opacity="1">
<use xlink:href="#glyph-6-2" x="292.266049" y="16.015452"/>
</g>
</svg>
